Coordinates
version=1
nRows=13
nColumns=34
inDegrees=yes

Units are S.I. units (second, meters, Newtons, ...)
If the header above contains a line with 'inDegrees', this indicates whether rotational values are in degrees (yes) or radians (no).

endheader
time	pelvis_tilt	pelvis_list	pelvis_rotation	pelvis_tx	pelvis_ty	pelvis_tz	hip_flexion_r	hip_adduction_r	hip_rotation_r	knee_angle_r	ankle_angle_r	subtalar_angle_r	mtp_angle_r	hip_flexion_l	hip_adduction_l	hip_rotation_l	knee_angle_l	ankle_angle_l	subtalar_angle_l	mtp_angle_l	lumbar_extension	lumbar_bending	lumbar_rotation	arm_flex_r	arm_add_r	arm_rot_r	elbow_flex_r	pro_sup_r	arm_flex_l	arm_add_l	arm_rot_l	elbow_flex_l	pro_sup_l
      1.81666670	    -25.52050823	     10.08562755	      2.88653362	      1.81015179	      0.83150939	     -0.06364233	      5.26793582	     -8.16586393	    -31.20663640	      0.00000000	     21.29298754	     16.29543408	      0.00000000	     22.41050701	      7.07026521	    -28.59058938	      0.00000000	     15.09572884	     16.18835623	      0.00000000	     15.26628157	    -11.90585210	    -20.29655772	     21.87787008	     -8.44785025	     39.15124211	     37.54714952	     85.22567676	    -37.87971508	      6.78862083	    -35.24930360	     45.40139739	     99.84098500
      1.83333330	    -25.41126728	     10.27740706	      2.95182781	      1.81863709	      0.83040452	     -0.06337201	      4.86891899	     -8.31262499	    -30.79602095	      0.00000000	     21.67680957	     16.33319630	      0.00000000	     24.13042863	      7.11392812	    -28.68393140	      0.00000000	     15.46269899	     16.37201920	      0.00000000	     14.69098743	    -12.19424985	    -20.36637731	     22.35562222	     -8.17189027	     39.10054693	     37.65287880	     85.21834528	    -37.33366126	      6.41412752	    -35.19339266	     45.59452382	     99.82338633
      1.85000000	    -25.28509157	     10.78918845	      2.40856896	      1.82813138	      0.82918692	     -0.06226717	      4.56457180	     -8.83282189	    -28.89939237	      0.40451720	     22.92579302	     15.53669738	      0.00000000	     25.37214852	      7.15406857	    -31.32980774	      0.00000000	     16.61015851	     19.72182439	      0.00000000	     14.60297697	    -12.66122888	    -20.30483946	     22.60691625	     -7.55167294	     38.74916296	     37.78136379	     85.17011017	    -37.78492632	      6.04517979	    -33.60527322	     45.68277620	     99.43440092
      1.86666670	    -25.09809012	     11.30223466	      2.06980029	      1.84202660	      0.82850368	     -0.06193775	      3.83548729	     -9.40351317	    -28.91976195	      0.72714277	     22.94981906	     15.40139934	      0.00000000	     26.15382386	      7.36305550	    -31.88989835	      0.00000000	     16.50189773	     19.32469019	      0.00000000	     14.63479951	    -13.32771850	    -20.14686136	     22.41398019	     -7.33111769	     38.71491089	     37.98105758	     85.17168534	    -38.25010660	      5.99677220	    -33.53467135	     45.35410315	     99.35288788
      1.88333330	    -25.09605637	     11.88282730	      1.51101419	      1.85476767	      0.82896793	     -0.06095982	      3.30447487	    -10.04026746	    -28.23923224	      0.94638335	     22.36942964	     14.43532729	      0.00000000	     26.85185366	      7.61013481	    -33.11353137	      0.00000000	     16.02530948	     18.88660099	      0.00000000	     14.95098691	    -13.88009374	    -18.79856782	     21.04709034	     -7.83990489	     37.00610907	     40.09116348	     85.09411043	    -38.07092086	      5.38470741	    -32.84566985	     42.86638307	     98.11080960
      1.90000000	    -25.05636608	     12.40228699	      1.22033875	      1.86875973	      0.82950653	     -0.06064075	      2.49832472	    -10.65245690	    -28.79784652	      1.03251533	     21.34782422	     14.38306663	      0.00000000	     27.12960549	      8.05762826	    -33.72658916	      0.00000000	     15.85273401	     18.60509669	      0.00000000	     15.49147852	    -14.62757435	    -18.58004282	     20.21011756	     -7.70758999	     36.92392211	     40.25099504	     85.09776102	    -39.09839557	      5.55568458	    -32.86373454	     42.35301063	     98.00067876
      1.91666670	    -25.23548370	     12.64277916	      0.90390170	      1.87959765	      0.82744887	     -0.06129567	      2.04505423	    -11.02798441	    -28.58712441	      1.28193541	     19.83538537	     13.04675573	      0.00000000	     27.35360911	      8.34939290	    -34.46475233	      0.00000000	     16.69064872	     20.90420754	      0.00000000	     16.34496827	    -15.00973003	    -17.75143315	     18.39497177	     -8.17866673	     35.04251667	     41.85268901	     84.96229330	    -39.37460065	      5.40707427	    -33.18155503	     40.54196697	     96.91693491
      1.93333330	    -25.17762024	     12.78603227	      0.56181657	      1.88487549	      0.82485462	     -0.06235237	      1.58944113	    -11.39927403	    -29.03415572	      1.83383863	     19.26783916	     12.58120014	      0.00000000	     27.34065141	      8.71229787	    -33.45801089	      0.00000000	     18.05985861	     21.89666381	      0.00000000	     16.82871357	    -15.31434032	    -17.48061354	     17.51475405	     -8.25367023	     34.96550927	     41.76434503	     84.96535954	    -39.81769067	      5.34526207	    -33.22197111	     40.31148494	     96.77181503
      1.95000000	    -25.14590262	     12.81958153	     -0.04042080	      1.89115645	      0.82309086	     -0.06274736	      1.22766205	    -11.63740894	    -28.16207323	      2.37817369	     17.86561782	     10.37947517	      0.00000000	     26.89982872	      8.90785945	    -33.89014000	      0.00000000	     19.35195578	     25.29224963	      0.00000000	     17.34654934	    -15.36453227	    -16.89922840	     16.20815983	     -8.37983137	     33.84620526	     42.06640579	     84.83205044	    -40.07319384	      5.13854201	    -33.17831067	     39.86277287	     95.89058018
      1.96666670	    -25.05085424	     13.02009199	     -0.72043291	      1.89944957	      0.82029288	     -0.06335687	      0.76911667	    -12.20573404	    -27.54607755	      3.30261691	     16.22321779	      8.56009833	      0.00000000	     26.00694294	      9.25873385	    -32.76969223	      0.00000000	     19.55889976	     25.16034100	      0.00000000	     17.72618572	    -15.57067686	    -16.44903700	     15.28463388	     -8.36217554	     33.46414233	     41.76802852	     84.79499067	    -40.39667989	      4.80308725	    -32.93988959	     40.00576347	     95.20026703
      1.98333330	    -25.01949293	     13.40932777	     -1.55126009	      1.91056907	      0.81880142	     -0.06355403	      0.52555452	    -13.05024540	    -27.57148434	      4.47532795	     14.53610864	      8.17230302	      0.00000000	     24.75680859	      9.68341498	    -32.17546269	      0.00000000	     19.23249101	     24.75050384	      0.00000000	     18.21839525	    -15.94413126	    -16.20169602	     14.38889949	     -8.27321510	     33.65212413	     41.46129438	     84.80957758	    -40.78811869	      4.58025456	    -32.97447485	     40.08537340	     95.07688506
      2.00000000	    -25.02617074	     13.52149100	     -2.38823109	      1.92944926	      0.81859817	     -0.06446471	      0.05843909	    -13.46114928	    -25.76105147	      5.25618426	     10.47703703	      4.30210579	      0.00000000	     23.14433157	      9.82331976	    -30.00796366	      0.00000000	     17.70812841	     21.09568293	      0.00000000	     18.73949937	    -16.10061726	    -15.61945893	     13.08115168	     -8.47567284	     33.75419925	     40.77610630	     84.74025117	    -41.52638432	      4.50220945	    -32.91760869	     41.43889925	     94.54376565
      2.01666670	    -25.21863654	     13.60265345	     -3.10867980	      1.94363763	      0.81930528	     -0.06561926	     -0.13825889	    -13.87403862	    -24.74450115	      5.96820479	      7.04764328	      2.23967688	      0.00000000	     21.78115038	      9.92874295	    -28.49543679	      0.00000000	     16.48162544	     18.31559755	      0.00000000	     19.35727514	    -16.16515730	    -15.15073719	     11.61250544	     -8.81921406	     33.87748319	     40.31958794	     84.63856112	    -42.09628811	      4.49619030	    -33.12238574	     42.60061260	     94.11667479
